Lynyrd Skynyrd Lyve The Vicious Cycle Tour][2003][XVID][ICM369
______________________________________________________________

 
http://www.imdb.com/title/tt0427479/


DVD Release Date: November 18, 2003 

The concert was recorded on July 11, 2003, at the AmSouth Amphitheatre 
in Nashville, Tennessee, during their Vicious Cycle Tour. 

This is modern Lynyrd Skynrd performing at their very best. 

This line-up contains some excellent seasoned rock veterans performing 
at their very best. 

Johnny Van Zant is on lead vocals, Gary Rossington (a founding member of 
Skynyrd) is on lead and slide guitar, Billy Powell (founding member is on 
keyboards), Rickey Medlocke, (formerly of Blackfoot) is on lead guitar, the 
late Hughie Thomasson (formerly of the Outlaws) 
is on lead guitar, Michael Cartellone (formerly of Ted Nugent and the Damm 
Yankees) is on Drums, the Mississippi KId Ean Evans is on bass. 

Also, you get Carol Chase and Dale Krantz Rossington as background singers, 
the dvd also contains other backup musicians.
 
They play all the classic from the old Skynyrd and include some new songs. 

Every song performanace is excellent. Some highlights include an awesome 
version of "Traveling Man".
 
This performance has excellent slide guitar play by Gary Rossington and 
contains Ronnie Van Zant 
singing along on the big screen with Johnny Van Zant.

It's like a part of the past and part of the present together.
 
Another highlight includes the performance of "Freebird" which features the 
excellent "three guitar" performances by Rossington, Medlocke, and Thomasson, 
along with the "three guitar" performances of Allen Collins, Gary Rossington, 
and Steve Gaines on the Big Screen. 

The current guitar players pay tribute to three guitar players from the past.
(Note: Gary Rossington was one of the guitar players of the past and one of the 
current ones also.) 

Billy Powell performs like a seasoned professional on the piano. All, the members 
play like seasoned professionals. 
 
It was recorded and filmed at The Amsouth Amphitheatre in Nashville,TN on July 11, 
2003 before a packed crowd, i recommend it to rock fans, especially the Skynyrd 
faithful.

The set list for this concert was hit after hit.


Set list
________
 
 1. That's How I Like It
 
 2. What's Your Name
 
 3. I Know A Little
 
 4. Pick 'Em Up
 
 5. Simple Man
 
 6. That Smell
 
 7. Red White and Blue
 
 8. Down South Jukin
 
 9. Gimme Back My Bullets
 
10. Double Trouble
 
11. The Ballad of Curtis 

12. Tuesday's Gone
 
13. Mississippi Kid
 
14. Workin'
 
15. Gimme Three Steps
 
16. Call Me The Breeze
 
17. Sweet Home Alabama
 
18. Travelin' Man
 
19. The Way
 
20. Free Bird
__________

Format                           : AVI
Format/Info                      : Audio Video Interleave
File size                        : 1.07 GiB
Duration                         : 1h 54mn
Overall bit rate                 : 1 339 Kbps

Video
ID                               : 0
Format                           : MPEG-4 Visual
Format profile                   : Simple@L3
Format settings, BVOP            : No
Format settings, QPel            : No
Format settings, GMC             : No warppoints
Format settings, Matrix          : Default (H.263)
Codec ID                         : XVID
Codec ID/Hint                    : XviD
Duration                         : 1h 54mn
Bit rate                         : 1 198 Kbps
Width                            : 640 pixels
Height                           : 480 pixels
Display aspect ratio             : 4:3
Frame rate                       : 29.970 fps
Color space                      : YUV
Chroma subsampling               : 4:2:0
Bit depth                        : 8 bits
Scan type                        : Progressive
Bits/(Pixel*Frame)               : 0.130
Stream size                      : 977 MiB (89%)
Writing library                  : Magic0432

Audio
ID                               : 1
Format                           : MPEG Audio
Format version                   : Version 1
Format profile                   : Layer 3
Mode                             : Joint stereo
Mode extension                   : MS Stereo
Codec ID                         : 55
Codec ID/Hint                    : MP3
Duration                         : 1h 54mn
Bit rate mode                    : Constant
Bit rate                         : 128 Kbps
Channel(s)                       : 2 channels
Sampling rate                    : 44.1 KHz
Stream size                      : 104 MiB (10%)
Alignment                        : Aligned on interleaves
Interleave, duration             : 26 ms (0.78 video frame)
Writing library                  : LAME3.97
__________

Enjoy:D